<svg width="22" height="22" viewBox="0 0 22 22" fill="none" xmlns="http://www.w3.org/2000/svg">
<path d="M7.38161 7.85489C8.07778 9.30486 9.0268 10.6638 10.2287 11.8657C11.4305 13.0676 12.7895 14.0166 14.2395 14.7128C14.3642 14.7727 14.4266 14.8026 14.5055 14.8256C14.7859 14.9073 15.1302 14.8486 15.3677 14.6786C15.4346 14.6307 15.4917 14.5735 15.6061 14.4592C15.9558 14.1095 16.1306 13.9347 16.3064 13.8204C16.9695 13.3893 17.8243 13.3893 18.4873 13.8204C18.6631 13.9347 18.838 14.1095 19.1877 14.4592L19.3826 14.6541C19.9142 15.1857 20.18 15.4515 20.3243 15.7369C20.6115 16.3046 20.6115 16.9751 20.3243 17.5428C20.18 17.8282 19.9142 18.094 19.3826 18.6256L19.2249 18.7832C18.6952 19.313 18.4303 19.5779 18.0702 19.7802C17.6706 20.0046 17.0499 20.166 16.5916 20.1647C16.1785 20.1635 15.8963 20.0833 15.3317 19.9231C12.2975 19.0619 9.43447 17.437 7.04591 15.0485C4.65735 12.6599 3.03247 9.79684 2.17129 6.76271C2.01105 6.19812 1.93092 5.91583 1.9297 5.50278C1.92833 5.04445 2.08973 4.42381 2.31421 4.0242C2.51651 3.66408 2.78138 3.39921 3.31113 2.86945L3.46881 2.71178C4.00038 2.18021 4.26617 1.91442 4.55162 1.77004C5.11932 1.4829 5.78975 1.4829 6.35744 1.77004C6.6429 1.91442 6.90868 2.18021 7.44025 2.71178L7.63517 2.9067C7.98486 3.25639 8.15971 3.43123 8.27402 3.60706C8.70512 4.27011 8.70512 5.1249 8.27402 5.78795C8.15971 5.96377 7.98486 6.13862 7.63517 6.48831C7.52083 6.60265 7.46366 6.65982 7.41581 6.72665C7.24576 6.96413 7.18704 7.30848 7.26878 7.5889C7.29179 7.66781 7.32173 7.73017 7.38161 7.85489Z" stroke="#FF5C00" stroke-width="2" stroke-linecap="round" stroke-linejoin="round"/>
</svg>
