<svg width="348" height="100" viewBox="0 0 348 100" fill="none" xmlns="http://www.w3.org/2000/svg">
<path d="M105.84 45V2.312H116.848V45H105.84ZM148.336 45L141.168 30.536H135.536V45H124.528V2.312H145.904C155.376 2.312 160.752 8.584 160.752 16.52C160.752 23.944 156.208 27.912 152.24 29.32L160.944 45H148.336ZM149.552 16.392C149.552 13.448 147.12 11.592 144.24 11.592H135.536V21.192H144.24C147.12 21.192 149.552 19.336 149.552 16.392ZM166.84 45V2.312H177.848V45H166.84ZM182.456 38.984L188.28 30.728C191.352 33.8 196.088 36.36 201.912 36.36C205.688 36.36 207.992 34.76 207.992 32.712C207.992 30.28 205.24 29.32 200.696 28.36C193.656 26.952 183.799 25.16 183.799 15.048C183.799 7.88 189.88 1.672 200.824 1.672C207.672 1.672 213.624 3.72 218.168 7.624L212.152 15.496C208.568 12.552 203.896 11.08 200.12 11.08C196.472 11.08 195.064 12.552 195.064 14.408C195.064 16.648 197.688 17.416 202.424 18.312C209.464 19.784 219.192 21.832 219.192 31.496C219.192 40.072 212.856 45.768 201.4 45.768C192.76 45.768 186.744 43.08 182.456 38.984Z" fill="white"/>
<path d="M106.736 94V51.312H124.72C133.488 51.312 138.352 57.328 138.352 64.432C138.352 71.536 133.424 77.552 124.72 77.552H113.136V94H106.736ZM131.76 64.432C131.76 59.952 128.496 56.944 123.888 56.944H113.136V71.92H123.888C128.496 71.92 131.76 68.912 131.76 64.432ZM143.132 72.688C143.132 60.016 151.9 50.608 164.636 50.608C177.372 50.608 186.14 60.016 186.14 72.688C186.14 85.36 177.372 94.768 164.636 94.768C151.9 94.768 143.132 85.36 143.132 72.688ZM179.548 72.688C179.548 63.28 173.66 56.304 164.636 56.304C155.484 56.304 149.724 63.28 149.724 72.688C149.724 82.032 155.484 89.072 164.636 89.072C173.66 89.072 179.548 82.032 179.548 72.688ZM225.315 94L216.419 61.04L207.587 94H200.739L188.515 51.312H195.683L204.515 85.552L213.859 51.312H219.043L228.323 85.552L237.155 51.312H244.323L232.163 94H225.315ZM249.736 94V51.312H278.408V56.944H256.136V69.424H277.96V75.056H256.136V88.368H278.408V94H249.736ZM311 94L300.824 77.552H292.824V94H286.424V51.312H304.408C312.536 51.312 318.104 56.56 318.104 64.432C318.104 72.112 312.92 76.208 307.48 76.912L318.424 94H311ZM311.512 64.432C311.512 59.952 308.184 56.944 303.576 56.944H292.824V71.92H303.576C308.184 71.92 311.512 68.912 311.512 64.432Z" fill="#FF5C00"/>
<g clip-path="url(#clip0_44_57528)">
<path d="M48.9554 42.254C49.5058 42.8492 50.0445 43.3808 50.525 43.9615C52.8964 46.8296 55.2601 49.7034 57.6063 52.5917C58.278 53.418 58.2537 53.7271 57.4403 54.4533C54.3583 57.2057 51.3219 60.017 48.14 62.65C45.1308 65.1396 41.9663 67.4413 38.8581 69.8095C37.8796 70.5549 36.8556 71.2406 35.8654 71.9716C35.4742 72.2605 35.1801 72.3299 34.8093 71.9061C32.4981 69.2644 30.1587 66.6477 27.8435 64.0079C27.2922 63.3791 26.6505 62.5277 26.237 62.0346C26.1953 61.9845 26.1497 61.9373 26.105 61.8901C25.4323 61.1813 25.8827 60.8038 26.4671 60.3743C28.0979 59.1723 29.7422 57.9897 31.34 56.7444C33.9658 54.6979 36.5779 52.6331 39.159 50.5307C41.8459 48.3426 44.494 46.1063 47.1499 43.8806C47.7575 43.3721 48.3283 42.8193 48.9554 42.2521V42.254Z" fill="white"/>
<path d="M45.6317 82.68C44.0669 81.1709 42.5633 79.7378 41.08 78.2846C39.7861 77.0172 38.5387 75.7006 37.2205 74.4592C36.7022 73.9719 36.8284 73.657 37.2914 73.3209C38.8368 72.197 40.3976 71.0952 41.9391 69.9665C43.8844 68.5431 45.8831 67.1842 47.7391 65.6509C50.7376 63.1739 53.6429 60.5832 56.5773 58.0282C57.3558 57.3512 58.1004 56.6346 58.8526 55.9277C59.6816 55.1486 59.7117 55.1399 60.4155 56.0183C61.8939 57.8635 63.3771 59.7068 64.8361 61.5685C65.7058 62.677 66.4901 63.8558 67.3978 64.9315C67.8948 65.52 67.8074 65.9273 67.3017 66.3636C65.8708 67.5964 64.4439 68.8329 62.9966 70.0464C61.491 71.309 60.0107 72.6082 58.4362 73.7793C55.7115 75.8037 52.9362 77.7597 50.1552 79.707C48.7146 80.7154 47.2178 81.6418 45.6317 82.681V82.68Z" fill="white"/>
<path d="M78.1599 29.2101C78.3017 29.2766 78.4347 29.4336 78.5298 29.5376C78.7686 29.7976 79.0064 30.0586 79.2442 30.3206C79.7189 30.8445 80.1907 31.3703 80.6634 31.8952C81.6079 32.944 82.5572 33.9899 83.5406 35.003C84.1395 35.6194 84.75 36.2233 85.38 36.8069C86.8215 38.1427 86.608 39.2743 85.9751 40.7179C84.5142 44.0502 82.9882 47.3487 80.9915 50.4007C79.5626 52.584 77.9823 54.6623 76.3331 56.6819C74.6392 58.7563 72.8929 60.7913 71.1253 62.8012C68.4694 59.3987 65.8136 55.9971 63.1577 52.5946C63.0665 52.478 62.9733 52.3557 62.9422 52.2103C62.849 51.7654 63.3616 51.3878 63.6237 51.0951C64.0226 50.6482 64.4274 50.2052 64.8254 49.7574C65.5825 48.9041 66.3251 48.0373 67.0201 47.132C69.0577 44.4797 71.1282 41.8361 72.9346 39.0268C73.9005 37.5234 74.7324 35.9391 75.539 34.3453C76.335 32.7716 77.2145 31.2307 77.7047 29.5241C77.7231 29.4586 77.7484 29.3951 77.7862 29.3382C77.9046 29.161 78.0357 29.1504 78.1609 29.2092L78.1599 29.2101Z" fill="white"/>
<path d="M66.1921 19.3357C66.2601 19.1855 66.4533 19.1421 66.5804 19.2471C67.7404 20.2015 68.8713 21.1078 69.9682 22.0535C71.6174 23.475 73.2414 24.9283 74.8712 26.3729C76.5175 27.8329 76.5495 27.9157 75.5653 29.9507C74.4276 32.2997 73.421 34.7372 72.0435 36.9378C70.3633 39.621 68.4044 42.1346 66.4736 44.6501C65.2205 46.2835 63.8003 47.7869 62.4588 49.3519C61.4668 50.5095 61.2843 50.4758 60.2961 49.27C58.5566 47.1474 56.7676 45.0662 55.0067 42.9619C54.1739 41.967 53.3701 40.9481 52.5285 39.9609C52.1635 39.5333 52.1907 39.2328 52.5751 38.8091C54.7029 36.4601 56.8734 34.1449 58.8847 31.6987C61.0746 29.0358 63.0199 26.1861 64.5012 23.0493C65.0603 21.8647 65.5893 20.6667 66.1921 19.3347V19.3357Z" fill="white"/>
<path d="M87.9553 40.3568C88.0844 40.2932 88.2242 40.3221 88.3737 40.4983C90.0841 42.5295 91.3227 44.9179 92.3497 47.3689C92.9583 48.8222 92.8137 49.9711 92.2245 51.4196C90.317 56.1069 87.7709 60.5313 84.6908 64.5415C82.6951 67.1399 80.4527 69.5119 78.1114 71.7964C77.9872 71.9167 77.8561 72.0419 77.6882 72.0862C77.3746 72.1681 77.0679 71.9389 76.8495 71.6991C76.4107 71.2175 76.0962 70.6387 75.774 70.0725C74.9139 68.5604 73.9733 67.0937 72.957 65.6828C72.6891 65.31 72.4046 64.9113 72.3881 64.4519C72.3726 64.0099 72.6133 63.5977 72.9036 63.2635C74.1878 61.7871 75.5769 60.3993 76.8621 58.92C78.1852 57.3974 79.4587 55.8314 80.6391 54.1942C81.8515 52.5137 82.964 50.7589 83.9201 48.9185C84.7122 47.3949 85.3936 45.8184 86.0789 44.2447C86.4216 43.4579 86.7652 42.671 87.1244 41.8909C87.2748 41.5645 87.567 40.5455 87.9553 40.3548V40.3568Z" fill="white"/>
<path d="M28.3134 69.9203C28.9725 70.6561 29.6267 71.3967 30.2839 72.1354C30.6159 72.509 30.9488 72.8808 31.2827 73.2525C31.4536 73.4422 31.6254 73.632 31.7972 73.8207C31.8506 73.8795 31.9079 73.9363 31.9642 73.9941C32.137 74.1674 32.1069 74.4535 31.903 74.5893C31.2138 75.0496 29.8461 76.0984 29.6898 76.2159C28.8016 76.8872 27.9173 77.5632 27.0281 78.2335C26.6457 78.5215 26.2632 78.8095 25.8798 79.0955C24.6237 80.0306 23.4657 81.0939 22.3193 82.161C22.2872 82.1908 22.2542 82.2216 22.2222 82.2515C21.8135 82.63 21.4078 83.0123 20.9981 83.3908C20.8584 83.5199 20.7176 83.6489 20.5759 83.776C20.5079 83.8377 20.4429 83.9012 20.3759 83.9638C20.3148 84.0216 20.242 84.1083 20.1653 84.1439C20.1643 84.1083 20.2342 84.0534 20.2585 84.0274C20.2934 83.9908 20.3381 83.9638 20.3691 83.9234C20.3089 84.0245 20.2332 84.115 20.1478 84.195C20.076 84.2624 19.9896 84.3269 19.8857 84.3115C19.6916 84.2817 19.5508 84.0929 19.4042 83.9783C16.3776 81.6159 13.5208 79.0676 10.9213 76.2381C9.63605 74.8387 9.76904 75.0641 10.832 73.7466C12.3996 71.8021 14.1993 70.0166 16.067 68.3524C17.9637 66.6622 20.0342 65.1704 22.0776 63.5784C22.2639 63.433 22.5299 63.4523 22.693 63.6218L23.8646 64.8458L28.3124 69.9193L28.3134 69.9203Z" fill="white"/>
<path d="M73.9393 75.38C73.8228 75.5764 73.7462 75.8663 73.5578 76.0031C69.9012 78.6689 66.2999 81.4185 62.5423 83.935C59.8059 85.7677 56.8734 87.3105 54.003 88.9381C52.7411 89.6547 52.4732 89.4784 51.4462 88.342C50.2804 87.0505 48.9952 85.8669 47.7624 84.6351C46.9693 83.8435 46.9819 83.6711 47.9119 83.0557C50.5988 81.2769 53.3391 79.5722 55.9648 77.7058C58.4945 75.9077 60.929 73.9729 63.3655 72.0468C65.0341 70.7283 66.6426 69.3328 68.2588 67.9489C68.8538 67.4394 69.3081 67.4134 69.7488 68.127C70.6933 69.6554 71.6756 71.1598 72.6163 72.6901C73.0007 73.3161 73.3249 73.9797 73.6617 74.6345C73.7695 74.8435 73.8277 75.0785 73.9384 75.3809L73.9393 75.38Z" fill="white"/>
<path d="M31.5351 91.3073C31.3585 91.3073 31.2158 91.2052 31.0109 91.1166C30.7644 91.0107 30.5178 90.9067 30.2713 90.7998C29.783 90.5869 29.2977 90.3664 28.8317 90.1073C27.3378 89.2781 25.8788 88.3844 24.4247 87.4849C23.8345 87.1199 23.2463 86.7491 22.6872 86.3378C22.2785 86.0374 21.7281 85.838 21.9145 85.1379C21.9523 84.9963 22.0164 84.8634 22.0911 84.7382C22.7066 83.699 23.686 82.9449 24.6528 82.2294C27.4514 80.1568 30.3324 78.1999 33.2135 76.2448C33.4367 76.0926 33.693 75.9337 33.958 75.9877C34.1492 76.0262 34.2997 76.1697 34.4385 76.3065C35.682 77.5267 36.9177 78.7527 38.1903 79.9411C39.4735 81.1392 40.7976 82.2949 42.1051 83.4669C42.8322 84.1189 42.871 84.351 42.044 84.8769C40.5297 85.8409 38.9387 86.6836 37.4176 87.637C36.4313 88.2553 35.4616 88.8977 34.4929 89.542C33.6047 90.1324 32.7534 90.7584 31.7962 91.238C31.6972 91.2871 31.6128 91.3073 31.5351 91.3073Z" fill="white"/>
<path d="M63.9751 2.00998C64.0517 1.97628 64.1954 1.99843 64.4352 2.10725C65.1748 2.44529 65.9805 2.74577 66.6765 3.16856C69.1013 4.38974 71.4233 5.7968 73.585 7.44462C74.745 8.32872 75.5449 9.2446 76.1622 10.5688C77.1058 12.5923 77.6892 14.7755 77.8551 17.0041C78.0279 19.3261 77.6455 21.6124 77.3989 23.9142C77.3387 24.4699 76.9757 24.3283 76.6495 24.0596C73.6918 21.622 70.7176 19.2047 67.7443 16.7855C67.1541 16.3049 67.1065 15.7598 67.1599 14.9913C67.4104 11.3807 67.3958 7.591 65.3816 4.43019C65.0545 3.91687 64.6846 3.43341 64.3148 2.95091C64.0828 2.6485 63.7615 2.10533 63.976 2.00998H63.9751Z" fill="white"/>
<path d="M77.6377 11.1101C78.7618 11.6109 79.5937 12.6914 80.4032 13.5833C81.3011 14.5733 82.1622 15.597 82.9834 16.6507C84.6268 18.7588 86.1129 20.9912 87.4253 23.3219C88.0262 24.389 88.3669 25.5735 88.3805 26.8082C88.4018 29.0965 88.1834 31.3799 88.0242 33.6595C88.0155 33.7857 87.9932 33.9118 87.9505 34.0313C87.7049 34.7189 87.3011 34.2557 86.9516 33.9504C86.5352 33.5854 86.1343 33.203 85.7402 32.8139C84.951 32.0348 84.1938 31.2239 83.4027 30.4477C82.5563 29.6165 81.7108 28.7864 80.8663 27.9543C80.4527 27.5469 80.0431 27.1347 79.6267 26.7292C78.9947 26.1148 78.8181 25.7594 79.0025 24.8753C79.2928 23.4817 79.3199 22.0824 79.3219 20.6667C79.3248 19.1729 79.2918 17.6725 79.051 16.1951C78.7666 14.4558 78.1988 12.7772 77.6329 11.1082C77.6348 11.1082 77.6358 11.1101 77.6377 11.1101Z" fill="white"/>
<path d="M74.8557 77.5122C75.772 79.2583 75.7157 81.066 75.3595 82.7706C75.1682 83.6855 74.3946 84.6505 73.618 85.2399C70.6292 87.506 67.3075 89.2608 63.8285 90.6033C61.8133 91.3805 59.7331 91.9737 57.6364 92.4832C57.1539 92.6007 56.6695 92.7134 56.1852 92.8232C55.7348 92.9253 55.2717 93.1169 54.8825 92.7654C54.7145 92.6142 54.6 92.4119 54.5039 92.2068C54.3573 91.8928 54.2253 91.5721 54.0603 91.2678C53.97 91.1012 53.9021 90.9028 53.9652 90.7246C53.9953 90.637 54.0545 90.5628 54.1234 90.5012C54.2836 90.3577 54.4884 90.2884 54.6786 90.1959C54.8893 90.0929 55.0921 89.9686 55.2989 89.8579C55.7901 89.5969 56.2803 89.334 56.7695 89.0681C57.748 88.5385 58.7226 88.0011 59.6962 87.4617C59.803 87.402 59.9107 87.3433 60.0175 87.2836C61.0882 86.6893 62.156 86.0884 63.2179 85.4768C64.6594 84.6467 66.0339 83.6894 67.3939 82.7263C69.7226 81.0794 72.0144 79.3806 74.3286 77.7125C74.4674 77.6124 74.6596 77.5854 74.8557 77.5141V77.5122Z" fill="white"/>
<path d="M93.8669 51.6825C93.898 51.6083 94.0096 51.6392 93.9989 51.7191C93.3592 56.2716 91.4363 62.077 89.5366 66.1672C85.8071 74.1963 80.0897 80.4081 77.6329 81.8287C77.7154 81.4714 77.8153 81.117 77.9134 80.7645C78.0114 80.412 78.0386 80.0258 78.0716 79.6598C78.1405 78.8913 78.1454 78.117 78.1046 77.3465C78.0755 76.8034 78.024 76.2611 77.9561 75.7209C77.9134 75.3828 77.8639 75.0419 77.9008 74.7039C77.9493 74.256 78.1949 73.9363 78.4744 73.605C78.7996 73.2207 79.1879 72.8981 79.5471 72.5485C80.2868 71.8271 81.0148 71.0942 81.7282 70.3469C83.1552 68.8512 84.5229 67.2978 85.8004 65.6712C86.3139 65.0172 86.8128 64.3518 87.2952 63.6747C88.9037 61.4163 90.2879 59.0539 91.4887 56.572C92.073 55.3634 92.7991 54.1701 93.3194 52.9306C93.3961 52.9499 93.6737 52.1457 93.8688 51.6815L93.8669 51.6825Z" fill="white"/>
<path d="M52.3781 93.4337C52.3674 93.453 52.3412 93.4636 52.3101 93.4713C52.1917 93.5012 52.0713 93.5223 51.951 93.5426C51.7529 93.5753 51.5539 93.6071 51.3549 93.637C50.9929 93.6909 50.6308 93.7381 50.2678 93.7795C49.5504 93.8613 48.8311 93.9201 48.1109 93.9557C46.6917 94.027 45.2686 94.0097 43.8504 93.9191C42.4371 93.8286 41.0296 93.6668 39.6298 93.4511C37.7175 93.1564 35.8256 92.7394 33.9308 92.3493C33.827 92.3281 33.7182 92.3041 33.6425 92.2299C33.2804 91.8774 34.3977 91.2755 34.6229 91.1445C37.5001 89.4707 40.354 87.7564 43.1836 86.0036C43.4874 85.8149 43.8194 85.6193 44.1756 85.6482C44.826 85.7012 45.4375 86.5343 45.887 86.9474C46.5412 87.5494 47.1935 88.1542 47.8439 88.7609C48.9185 89.7635 49.9901 90.7689 51.0579 91.7792C51.553 92.2472 52.0393 92.7442 52.3645 93.35C52.3858 93.3894 52.3878 93.4154 52.3771 93.4337H52.3781Z" fill="white"/>
<path d="M93.63 44.0838C93.6669 43.9663 93.2126 43.3856 93.1398 43.2643C92.9457 42.9387 92.7506 42.6142 92.5564 42.2887C92.1633 41.6318 91.7702 40.975 91.378 40.3182C90.8742 39.4736 90.3733 38.628 89.8734 37.7805C89.4473 37.0572 88.8183 36.3099 88.9221 35.4181C89.1464 33.4987 89.4327 31.586 89.6667 29.6676C89.7268 29.1735 89.6754 28.6669 89.6754 27.9995C92.0886 30.647 94.3154 41.8736 93.63 44.0838Z" fill="white"/>
<path d="M35.2219 1.09119C32.4524 2.04752 29.3792 3.46613 26.8738 4.65457L27.8028 3.76372C28.4667 3.08572 30.1325 2.60514 31.0478 2.34318L35.2219 1.09119Z" fill="#FF5C00"/>
<path d="M5.80954 30.2723L0.0823863 44.1406C0.0707379 44.1676 0.0843277 44.1782 0.0872398 44.2071C0.0299683 47.1714 -0.224356 51.6411 0.521144 55.0282C0.5425 55.2141 0.811384 55.2256 0.848271 55.0417" fill="#FF5C00"/>
<path d="M8.93909 31.0929L9.3031 70.2458C9.3031 70.3045 9.28369 70.3604 9.24583 70.4056L8.06254 71.8146C7.95577 71.9417 7.75483 71.9302 7.66358 71.7915C3.97685 66.1662 2.98965 62.1463 2.93432 60.4224C2.87219 59.7742 3.03915 59.1454 3.1702 58.4529C3.27018 57.9232 3.39831 57.3964 3.51092 56.8696C3.73806 55.8131 3.96229 54.7557 4.18458 53.6982C4.75924 50.966 5.3339 48.2337 5.90758 45.5024C6.49195 42.7211 7.07728 39.9397 7.66164 37.1583C8.08681 35.1368 8.51198 33.1154 8.93715 31.0939" fill="#FF5C00"/>
<path d="M13.1015 67.4519L19.645 62.0423C19.6819 62.0115 19.6993 61.9633 19.6887 61.9162L13.018 31.535C13.0015 31.4589 12.8889 31.4714 12.8889 31.5485V67.3537C12.8889 67.4625 13.017 67.5222 13.1015 67.4529V67.4519Z" fill="#FF5C00"/>
<path d="M16.5843 30.5844C16.5494 30.5035 16.4271 30.542 16.4446 30.6277L22.4717 59.6307C22.4823 59.6818 22.5415 59.7058 22.5852 59.676L27.263 55.9864" fill="#FF5C00"/>
<path d="M37.2962 48.8472L41.4528 45.2261C41.4771 45.2049 41.478 45.1673 41.4557 45.1452L23.1842 26.8178C23.123 26.7562 23.025 26.8342 23.0716 26.9074L37.239 48.8395C37.2516 48.8588 37.2788 48.8626 37.2962 48.8472Z" fill="#FF5C00"/>
<path d="M44.4833 42.5487C45.4181 41.9256 46.4674 41.0241 47.7362 39.5901C47.872 39.4668 47.8546 39.2492 47.7012 39.1481L25.4653 24.5536C25.4061 24.5151 25.3411 24.595 25.3925 24.6441L44.0941 42.5419C44.2018 42.646 44.3727 42.6488 44.4833 42.5477V42.5487Z" fill="#FF5C00"/>
<path d="M50.3862 36.6768C51.6675 35.4171 52.8139 34.1883 53.7487 33.0075C53.9807 32.7542 53.8895 32.3498 53.5711 32.2188L27.4572 21.4978C27.4339 21.4882 27.4155 21.52 27.4368 21.5344L49.7368 36.751C49.9416 36.8907 50.2202 36.8589 50.3872 36.6759L50.3862 36.6768Z" fill="#FF5C00"/>
<path d="M56.8967 29.6589C58.2819 27.6586 59.7729 25.5417 60.3126 24.4814C60.4048 24.3408 60.3252 24.153 60.1592 24.1212L28.7288 18.0596C28.656 18.0452 28.6249 18.1482 28.6929 18.1761L56.6055 29.7465C56.7113 29.7908 56.8336 29.7542 56.8967 29.6589Z" fill="#FF5C00"/>
<path d="M61.7618 21.1569C62.5394 19.9097 63.4276 17.7139 63.9304 14.8112C63.943 14.737 63.8857 14.6696 63.81 14.6705H29.1278C29.0783 14.6696 29.0715 14.7399 29.12 14.7495L61.6347 21.2108C61.6842 21.2214 61.7356 21.2002 61.7618 21.1578V21.1569Z" fill="#FF5C00"/>
<path d="M64.2459 11.3961L29.1161 11.6812C29.054 11.6812 29.0443 11.5935 29.1045 11.5801L62.7898 4.26935C63.8246 6.56917 64.2847 8.94893 64.2459 11.3961Z" fill="#FF5C00"/>
<path d="M60.6038 1.94643L28.4425 8.19582C28.4269 8.19871 28.4201 8.17752 28.4337 8.17175C29.8675 7.54382 32.3767 6.61831 33.7571 6.00579C36.477 4.79809 39.1969 3.58943 41.9168 2.38174C42.8089 1.98591 43.7009 1.58913 44.593 1.1933C45.5103 0.785922 46.4374 0.17148 47.4449 0.0433914C48.0342 -0.0317284 48.6311 0.00486843 49.2242 0.0414653C52.4994 0.243711 55.7551 0.363132 58.9255 1.28672C59.5021 1.4543 60.0787 1.65365 60.6038 1.94643Z" fill="#FF5C00"/>
<path d="M19.5062 29.0704L29.883 54.0603L34.4453 50.6896L19.6479 28.9953C19.5935 28.9154 19.4693 28.9818 19.5062 29.0704Z" fill="#FF5C00"/>
</g>
<defs>
<clipPath id="clip0_44_57528">
<rect width="94" height="94" fill="white"/>
</clipPath>
</defs>
</svg>
